<?xml version="1.0" encoding="UTF-8" standalone="no"?>
<!DOCTYPE svg PUBLIC "-//W3C//DTD SVG 1.1//EN"
 "http://www.w3.org/Graphics/SVG/1.1/DTD/svg11.dtd">
<!-- Generated by graphviz version 2.40.1 (0)
 -->
<!-- Title: SourceSinkUML Pages: 1 -->
<svg width="684pt" height="472pt"
 viewBox="0.00 0.00 684.00 472.00" xmlns="http://www.w3.org/2000/svg" xmlns:xlink="http://www.w3.org/1999/xlink">
<g id="graph0" class="graph" transform="scale(1 1) rotate(0) translate(4 468)">
<title>SourceSinkUML</title>
<polygon fill="#ffffff" stroke="transparent" points="-4,4 -4,-468 680,-468 680,4 -4,4"/>
<!-- Endpoint -->
<g id="node1" class="node">
<title>Endpoint</title>
<polygon fill="none" stroke="#000000" points="342.5,-304.5 342.5,-463.5 664.5,-463.5 664.5,-304.5 342.5,-304.5"/>
<text text-anchor="middle" x="503.5" y="-451.5" font-family="Helvetica,sans-Serif" font-size="10.00" fill="#000000">Endpoint</text>
<polyline fill="none" stroke="#000000" points="342.5,-444.5 664.5,-444.5 "/>
<text text-anchor="start" x="350.5" y="-432.5" font-family="Helvetica,sans-Serif" font-size="10.00" fill="#000000">id : int</text>
<text text-anchor="start" x="350.5" y="-421.5" font-family="Helvetica,sans-Serif" font-size="10.00" fill="#000000"> connected_id : int</text>
<text text-anchor="start" x="350.5" y="-410.5" font-family="Helvetica,sans-Serif" font-size="10.00" fill="#000000"> // id of paired Sink (for Source) or Source (for Sink);</text>
<text text-anchor="start" x="350.5" y="-399.5" font-family="Helvetica,sans-Serif" font-size="10.00" fill="#000000"> // 0 = unpaired (standalone source injection or standalone intake)</text>
<text text-anchor="start" x="350.5" y="-388.5" font-family="Helvetica,sans-Serif" font-size="10.00" fill="#000000"> coordinate_x : double</text>
<text text-anchor="start" x="350.5" y="-377.5" font-family="Helvetica,sans-Serif" font-size="10.00" fill="#000000"> coordinate_y : double</text>
<text text-anchor="start" x="350.5" y="-366.5" font-family="Helvetica,sans-Serif" font-size="10.00" fill="#000000"> vertical_boundary_lower : double</text>
<text text-anchor="start" x="350.5" y="-355.5" font-family="Helvetica,sans-Serif" font-size="10.00" fill="#000000"> // lower z&#45;limit [m], bed&#45;positive (negated depth convention)</text>
<text text-anchor="start" x="350.5" y="-344.5" font-family="Helvetica,sans-Serif" font-size="10.00" fill="#000000"> vertical_boundary_upper : double</text>
<text text-anchor="start" x="350.5" y="-333.5" font-family="Helvetica,sans-Serif" font-size="10.00" fill="#000000"> // upper z&#45;limit [m]; equals lower for a point, differs for a slab</text>
<text text-anchor="start" x="350.5" y="-322.5" font-family="Helvetica,sans-Serif" font-size="10.00" fill="#000000"> discharge : double</text>
<text text-anchor="start" x="350.5" y="-311.5" font-family="Helvetica,sans-Serif" font-size="10.00" fill="#000000"> // fully&#45;weighted discharge [m3/s]; negative = withdrawal (sink/intake)</text>
</g>
<!-- Source -->
<g id="node4" class="node">
<title>Source</title>
<polygon fill="none" stroke="#000000" points="210,-187 210,-225 395,-225 395,-187 210,-187"/>
<text text-anchor="middle" x="302.5" y="-213" font-family="Helvetica,sans-Serif" font-size="10.00" fill="#000000">Source</text>
<polyline fill="none" stroke="#000000" points="210,-206 395,-206 "/>
<text text-anchor="start" x="218" y="-194" font-family="Helvetica,sans-Serif" font-size="10.00" fill="#000000">water_quality : optional&lt;Constituents&gt;</text>
</g>
<!-- Endpoint&#45;&gt;Source -->
<g id="edge1" class="edge">
<title>Endpoint&#45;&gt;Source</title>
<path fill="none" stroke="#000000" d="M413.5821,-304.3712C384.1646,-278.3199 353.5241,-251.1855 331.8937,-232.0302"/>
<polygon fill="none" stroke="#000000" points="334.158,-229.3603 324.3512,-225.3508 329.5172,-234.6008 334.158,-229.3603"/>
</g>
<!-- Sink -->
<g id="node5" class="node">
<title>Sink</title>
<polygon fill="none" stroke="#000000" points="467,-181.5 467,-230.5 676,-230.5 676,-181.5 467,-181.5"/>
<text text-anchor="middle" x="571.5" y="-218.5" font-family="Helvetica,sans-Serif" font-size="10.00" fill="#000000">Sink</text>
<polyline fill="none" stroke="#000000" points="467,-211.5 676,-211.5 "/>
<text text-anchor="start" x="475" y="-199.5" font-family="Helvetica,sans-Serif" font-size="10.00" fill="#000000">(no additional fields)</text>
<text text-anchor="start" x="475" y="-188.5" font-family="Helvetica,sans-Serif" font-size="10.00" fill="#000000"> // Withdrawal only; constituents not needed</text>
</g>
<!-- Endpoint&#45;&gt;Sink -->
<g id="edge2" class="edge">
<title>Endpoint&#45;&gt;Sink</title>
<path fill="none" stroke="#000000" d="M533.92,-304.3712C542.5527,-281.7737 551.4968,-258.3614 558.4927,-240.0486"/>
<polygon fill="none" stroke="#000000" points="561.7636,-241.294 562.0628,-230.7034 555.2245,-238.7959 561.7636,-241.294"/>
</g>
<!-- Momentum -->
<g id="node2" class="node">
<title>Momentum</title>
<polygon fill="none" stroke="#000000" points="0,-17 0,-77 293,-77 293,-17 0,-17"/>
<text text-anchor="middle" x="146.5" y="-65" font-family="Helvetica,sans-Serif" font-size="10.00" fill="#000000">Momentum (optional)</text>
<polyline fill="none" stroke="#000000" points="0,-58 293,-58 "/>
<text text-anchor="start" x="8" y="-46" font-family="Helvetica,sans-Serif" font-size="10.00" fill="#000000">velocity_magnitude : double [m/s]</text>
<text text-anchor="start" x="8" y="-35" font-family="Helvetica,sans-Serif" font-size="10.00" fill="#000000"> &#160;&#160;&#160;&#160;&#160;&#160;&#160;&#160;&#160;&#160;&#160;velocity_direction_deg : double [deg, 0=North 90=East]</text>
<text text-anchor="middle" x="146.5" y="-24" font-family="Helvetica,sans-Serif" font-size="10.00" fill="#000000"> &#160;&#160;&#160;&#160;&#160;&#160;&#160;</text>
</g>
<!-- Constituents -->
<g id="node3" class="node">
<title>Constituents</title>
<polygon fill="none" stroke="#000000" points="365,-.5 365,-93.5 554,-93.5 554,-.5 365,-.5"/>
<text text-anchor="middle" x="459.5" y="-81.5" font-family="Helvetica,sans-Serif" font-size="10.00" fill="#000000">Constituents (absolute values, optional)</text>
<polyline fill="none" stroke="#000000" points="365,-74.5 554,-74.5 "/>
<text text-anchor="start" x="373" y="-62.5" font-family="Helvetica,sans-Serif" font-size="10.00" fill="#000000">temperature : double [degC]</text>
<text text-anchor="start" x="373" y="-51.5" font-family="Helvetica,sans-Serif" font-size="10.00" fill="#000000"> &#160;&#160;&#160;&#160;&#160;&#160;&#160;&#160;&#160;&#160;&#160;salinity : double [ppt]</text>
<text text-anchor="start" x="373" y="-40.5" font-family="Helvetica,sans-Serif" font-size="10.00" fill="#000000"> &#160;&#160;&#160;&#160;&#160;&#160;&#160;&#160;&#160;&#160;&#160;constituent_A : double</text>
<text text-anchor="start" x="373" y="-29.5" font-family="Helvetica,sans-Serif" font-size="10.00" fill="#000000"> &#160;&#160;&#160;&#160;&#160;&#160;&#160;&#160;&#160;&#160;&#160;constituent_B : double</text>
<text text-anchor="start" x="373" y="-18.5" font-family="Helvetica,sans-Serif" font-size="10.00" fill="#000000"> &#160;&#160;&#160;&#160;&#160;&#160;&#160;&#160;&#160;&#160;&#160;constituent_C : double</text>
<text text-anchor="middle" x="459.5" y="-7.5" font-family="Helvetica,sans-Serif" font-size="10.00" fill="#000000"> &#160;&#160;&#160;&#160;&#160;&#160;&#160;</text>
</g>
<!-- Source&#45;&gt;Momentum -->
<g id="edge3" class="edge">
<title>Source&#45;&gt;Momentum</title>
<path fill="none" stroke="#000000" stroke-dasharray="5,2" d="M283.6828,-186.8209C258.9251,-161.5872 214.8698,-116.6846 183.3613,-84.5701"/>
<polygon fill="#000000" stroke="#000000" points="185.5434,-81.7966 176.0416,-77.1097 180.5467,-86.699 185.5434,-81.7966"/>
<text text-anchor="middle" x="261" y="-133.8" font-family="Times,serif" font-size="14.00" fill="#000000">optional</text>
</g>
<!-- Source&#45;&gt;Constituents -->
<g id="edge4" class="edge">
<title>Source&#45;&gt;Constituents</title>
<path fill="none" stroke="#000000" stroke-dasharray="5,2" d="M321.4379,-186.8209C342.3394,-165.6531 376.9079,-130.6443 406.2244,-100.9542"/>
<polygon fill="#000000" stroke="#000000" points="409.0174,-103.1071 413.5531,-93.5322 404.0364,-98.1887 409.0174,-103.1071"/>
<text text-anchor="middle" x="399" y="-133.8" font-family="Times,serif" font-size="14.00" fill="#000000">optional</text>
</g>
</g>
</svg>
