<?xml version="1.0" encoding="UTF-8" standalone="no"?>
<!DOCTYPE svg PUBLIC "-//W3C//DTD SVG 1.1//EN"
 "http://www.w3.org/Graphics/SVG/1.1/DTD/svg11.dtd">
<!-- Generated by graphviz version 12.2.1 (20241206.2353)
 -->
<!-- Title: DiffuserGeometry Pages: 1 -->
<svg width="862pt" height="503pt"
 viewBox="0.00 0.00 862.15 503.01" xmlns="http://www.w3.org/2000/svg" xmlns:xlink="http://www.w3.org/1999/xlink">
<g id="graph0" class="graph" transform="scale(1 1) rotate(0) translate(392.32 276.9)">
<title>DiffuserGeometry</title>
<polygon fill="white" stroke="none" points="-392.32,226.11 -392.32,-276.9 469.83,-276.9 469.83,226.11 -392.32,226.11"/>
<!-- Sink&#45;&#45;XRef -->
<g id="edge1" class="edge">
<title>Sink&#45;&#45;XRef</title>
<path fill="none" stroke="#888888" stroke-dasharray="5,2" d="M-334.18,157.12C-310.13,157.12 -210.92,157.12 -186.5,157.12"/>
<text text-anchor="middle" x="-228.46" y="155.37" font-family="Times New Roman,serif" font-size="10.00">reference x&#45;axis</text>
</g>
<!-- Sink&#45;&#45;Source -->
<g id="edge2" class="edge">
<title>Sink&#45;&#45;Source</title>
<path fill="none" stroke="#d62728" stroke-width="2" d="M-334.6,154.7C-290.29,132.54 43.59,-34.4 87.74,-56.47"/>
<text text-anchor="middle" x="-155.68" y="47.36" font-family="Times New Roman,serif" font-size="10.00">sink&#45;source line</text>
</g>
<!-- Start&#45;&#45;End -->
<g id="edge3" class="edge">
<title>Start&#45;&#45;End</title>
<path fill="none" stroke="#2ca02c" stroke-width="2" d="M162.29,80.6C145.47,46.97 40.09,-163.79 22.92,-198.15"/>
<text text-anchor="middle" x="32.98" y="-60.52" font-family="Times New Roman,serif" font-size="10.00">Start&#45;End line through source</text>
</g>
<!-- Source&#45;&#45;Start -->
<g id="edge4" class="edge">
<title>Source&#45;&#45;Start</title>
<path fill="none" stroke="#2ca02c" stroke-dasharray="5,2" d="M94.95,-54.09C105.93,-32.12 151.38,58.77 162.22,80.46"/>
<text text-anchor="middle" x="90.71" y="11.44" font-family="Times New Roman,serif" font-size="10.00">half_plume_width</text>
</g>
<!-- Source&#45;&#45;End -->
<g id="edge5" class="edge">
<title>Source&#45;&#45;End</title>
<path fill="none" stroke="#2ca02c" stroke-dasharray="5,2" d="M90.16,-63.67C79.18,-85.63 33.73,-176.52 22.88,-198.21"/>
</g>
<!-- A1&#45;&#45;A2 -->
<g id="edge6" class="edge">
<title>A1&#45;&#45;A2</title>
<path fill="none" stroke="#ff7f0e" stroke-width="2" d="M-267.98,155.18C-268.81,152.14 -270.4,146.29 -271.23,143.24"/>
</g>
<!-- A2&#45;&#45;A3 -->
<g id="edge7" class="edge">
<title>A2&#45;&#45;A3</title>
<path fill="none" stroke="#ff7f0e" stroke-width="2" d="M-272.74,139.52C-274.26,136.75 -277.18,131.44 -278.71,128.66"/>
</g>
<!-- Sink -->
<g id="node1" class="node">
<title>Sink</title>
<ellipse fill="white" stroke="black" cx="-339.45" cy="157.12" rx="5.04" ry="5.04"/>
</g>
<!-- XRef -->
<g id="node2" class="node">
<title>XRef</title>
<ellipse fill="#999999" stroke="black" cx="-181.05" cy="157.12" rx="5.04" ry="5.04"/>
</g>
<!-- Start -->
<g id="node3" class="node">
<title>Start</title>
<ellipse fill="#2ca02c" stroke="black" cx="164.55" cy="85.12" rx="5.04" ry="5.04"/>
</g>
<!-- Source -->
<g id="node4" class="node">
<title>Source</title>
<ellipse fill="#d62728" stroke="black" cx="92.55" cy="-58.88" rx="5.04" ry="5.04"/>
</g>
<!-- End -->
<g id="node5" class="node">
<title>End</title>
<ellipse fill="#2ca02c" stroke="black" cx="20.55" cy="-202.88" rx="5.04" ry="5.04"/>
</g>
<!-- P0 -->
<g id="node6" class="node">
<title>P0</title>
<ellipse fill="#1f77b4" stroke="black" cx="164.55" cy="85.12" rx="2.88" ry="2.88"/>
</g>
<!-- P25 -->
<g id="node7" class="node">
<title>P25</title>
<ellipse fill="#1f77b4" stroke="black" cx="128.55" cy="13.12" rx="2.88" ry="2.88"/>
</g>
<!-- P50 -->
<g id="node8" class="node">
<title>P50</title>
<ellipse fill="#1f77b4" stroke="black" cx="92.55" cy="-58.88" rx="2.88" ry="2.88"/>
</g>
<!-- P75 -->
<g id="node9" class="node">
<title>P75</title>
<ellipse fill="#1f77b4" stroke="black" cx="56.55" cy="-130.88" rx="2.88" ry="2.88"/>
</g>
<!-- P100 -->
<g id="node10" class="node">
<title>P100</title>
<ellipse fill="#1f77b4" stroke="black" cx="20.55" cy="-202.88" rx="2.88" ry="2.88"/>
</g>
<!-- A1 -->
<g id="node11" class="node">
<title>A1</title>
<ellipse fill="#ff7f0e" stroke="black" cx="-267.45" cy="157.12" rx="1.8" ry="1.8"/>
</g>
<!-- A2 -->
<g id="node12" class="node">
<title>A2</title>
<ellipse fill="#ff7f0e" stroke="black" cx="-271.77" cy="141.28" rx="1.8" ry="1.8"/>
</g>
<!-- A3 -->
<g id="node13" class="node">
<title>A3</title>
<ellipse fill="#ff7f0e" stroke="black" cx="-279.69" cy="126.88" rx="1.8" ry="1.8"/>
</g>
<!-- SinkText -->
<g id="node14" class="node">
<title>SinkText</title>
<text text-anchor="middle" x="-339.45" y="188.36" font-family="Times New Roman,serif" font-size="10.00">last sink</text>
</g>
<!-- SourceText -->
<g id="node15" class="node">
<title>SourceText</title>
<text text-anchor="middle" x="124.95" y="-69.4" font-family="Times New Roman,serif" font-size="10.00">source</text>
</g>
<!-- StartText -->
<g id="node16" class="node">
<title>StartText</title>
<text text-anchor="middle" x="204.15" y="121.4" font-family="Times New Roman,serif" font-size="10.00">start</text>
</g>
<!-- EndText -->
<g id="node17" class="node">
<title>EndText</title>
<text text-anchor="middle" x="38.55" y="-231.4" font-family="Times New Roman,serif" font-size="10.00">end</text>
</g>
<!-- SampleText -->
<g id="node18" class="node">
<title>SampleText</title>
<text text-anchor="middle" x="-44.25" y="-137.8" font-family="Times New Roman,serif" font-size="10.00">sample points P_i lie on Start&#45;End</text>
</g>
<!-- AngleText -->
<g id="node19" class="node">
<title>AngleText</title>
<text text-anchor="middle" x="-227.85" y="92.6" font-family="Times New Roman,serif" font-size="10.00">ang_end</text>
</g>
<!-- PerpText -->
<g id="node20" class="node">
<title>PerpText</title>
<text text-anchor="middle" x="193.35" y="-87.4" font-family="Times New Roman,serif" font-size="10.00">Start&#45;End is perpendicular to sink&#45;source</text>
</g>
<!-- Formula1 -->
<g id="node21" class="node">
<title>Formula1</title>
<polygon fill="none" stroke="black" points="212.08,-145.28 212.08,-170.53 433.83,-170.53 433.83,-145.28 212.08,-145.28"/>
<text text-anchor="start" x="219.08" y="-154.03" font-family="Times New Roman,serif" font-size="10.00">x_range = half_plume_width * cos(pi/2 &#45; ang_end)</text>
<polygon fill="none" stroke="black" points="212.08,-120.03 212.08,-145.28 433.83,-145.28 433.83,-120.03 212.08,-120.03"/>
<text text-anchor="start" x="219.83" y="-128.78" font-family="Times New Roman,serif" font-size="10.00">y_range = half_plume_width * sin(pi/2 &#45; ang_end)</text>
</g>
<!-- Formula2 -->
<g id="node22" class="node">
<title>Formula2</title>
<polygon fill="none" stroke="black" points="250.18,14.9 250.18,-10.35 402.93,-10.35 402.93,14.9 250.18,14.9"/>
<text text-anchor="start" x="257.18" y="6.15" font-family="Times New Roman,serif" font-size="10.00">dx = 2 * x_range / (num_steps &#45; 1)</text>
<polygon fill="none" stroke="black" points="250.18,40.15 250.18,14.9 402.93,14.9 402.93,40.15 250.18,40.15"/>
<text text-anchor="start" x="257.18" y="31.4" font-family="Times New Roman,serif" font-size="10.00">dy = 2 * y_range / (num_steps &#45; 1)</text>
<polygon fill="none" stroke="black" points="250.18,65.4 250.18,40.15 402.93,40.15 402.93,65.4 250.18,65.4"/>
<text text-anchor="start" x="270.3" y="56.65" font-family="Times New Roman,serif" font-size="10.00">point_i = start + i * (dx, dy)</text>
</g>
</g>
</svg>
