<?xml version="1.0"?>
<VTKFile type="UnstructuredGrid" version="0.1" byte_order="LittleEndian">
   <UnstructuredGrid>
      <Piece NumberOfPoints="200" NumberOfCells="0" > 
         <Points> 
            <DataArray type="Float64" Name="Position" NumberOfComponents="3" format="ascii"> 
               50  150  0  
               150  150  0  
               50  250  0  
               250  150  0  
               150  250  0  
               50  350  0  
               350  150  0  
               250  250  0  
               150  350  0  
               50  450  0  
               450  150  0  
               350  250  0  
               250  350  0  
               150  450  0  
               50  550  0  
               550  150  0  
               450  250  0  
               350  350  0  
               250  450  0  
               150  550  0  
               50  650  0  
               650  150  0  
               550  250  0  
               450  350  0  
               350  450  0  
               250  550  0  
               150  650  0  
               50  750  0  
               750  150  0  
               650  250  0  
               550  350  0  
               450  450  0  
               350  550  0  
               250  650  0  
               150  750  0  
               50  850  0  
               850  150  0  
               750  250  0  
               650  350  0  
               550  450  0  
               450  550  0  
               350  650  0  
               250  750  0  
               150  850  0  
               50  950  0  
               950  150  0  
               850  250  0  
               750  350  0  
               650  450  0  
               550  550  0  
               450  650  0  
               350  750  0  
               250  850  0  
               150  950  0  
               50  1050  0  
               1050  150  0  
               950  250  0  
               850  350  0  
               750  450  0  
               650  550  0  
               550  650  0  
               450  750  0  
               350  850  0  
               250  950  0  
               150  1050  0  
               1150  150  0  
               1050  250  0  
               950  350  0  
               850  450  0  
               750  550  0  
               650  650  0  
               550  750  0  
               450  850  0  
               350  950  0  
               250  1050  0  
               1250  150  0  
               1150  250  0  
               1050  350  0  
               950  450  0  
               850  550  0  
               750  650  0  
               650  750  0  
               550  850  0  
               450  950  0  
               350  1050  0  
               1350  150  0  
               1250  250  0  
               1150  350  0  
               1050  450  0  
               950  550  0  
               850  650  0  
               750  750  0  
               650  850  0  
               550  950  0  
               450  1050  0  
               1450  150  0  
               1350  250  0  
               1250  350  0  
               1150  450  0  
               1050  550  0  
               950  650  0  
               850  750  0  
               750  850  0  
               650  950  0  
               550  1050  0  
               1550  150  0  
               1450  250  0  
               1350  350  0  
               1250  450  0  
               1150  550  0  
               1050  650  0  
               950  750  0  
               850  850  0  
               750  950  0  
               650  1050  0  
               1650  150  0  
               1550  250  0  
               1450  350  0  
               1350  450  0  
               1250  550  0  
               1150  650  0  
               1050  750  0  
               950  850  0  
               850  950  0  
               750  1050  0  
               1750  150  0  
               1650  250  0  
               1550  350  0  
               1450  450  0  
               1350  550  0  
               1250  650  0  
               1150  750  0  
               1050  850  0  
               950  950  0  
               850  1050  0  
               1850  150  0  
               1750  250  0  
               1650  350  0  
               1550  450  0  
               1450  550  0  
               1350  650  0  
               1250  750  0  
               1150  850  0  
               1050  950  0  
               950  1050  0  
               1950  150  0  
               1850  250  0  
               1750  350  0  
               1650  450  0  
               1550  550  0  
               1450  650  0  
               1350  750  0  
               1250  850  0  
               1150  950  0  
               1050  1050  0  
               1950  250  0  
               1850  350  0  
               1750  450  0  
               1650  550  0  
               1550  650  0  
               1450  750  0  
               1350  850  0  
               1250  950  0  
               1150  1050  0  
               1950  350  0  
               1850  450  0  
               1750  550  0  
               1650  650  0  
               1550  750  0  
               1450  850  0  
               1350  950  0  
               1250  1050  0  
               1950  450  0  
               1850  550  0  
               1750  650  0  
               1650  750  0  
               1550  850  0  
               1450  950  0  
               1350  1050  0  
               1950  550  0  
               1850  650  0  
               1750  750  0  
               1650  850  0  
               1550  950  0  
               1450  1050  0  
               1950  650  0  
               1850  750  0  
               1750  850  0  
               1650  950  0  
               1550  1050  0  
               1950  750  0  
               1850  850  0  
               1750  950  0  
               1650  1050  0  
               1950  850  0  
               1850  950  0  
               1750  1050  0  
               1950  950  0  
               1850  1050  0  
               1950  1050  0  
            </DataArray>
         </Points> 

         <Cells>
            <DataArray type="Int32" Name="connectivity" NumberOfComponents="1" format="ascii">
               
            </DataArray> 
            <DataArray type="Int32" Name="offsets" NumberOfComponents="1" format="ascii">
               
            </DataArray>
            <DataArray type="UInt8"  Name="types" NumberOfComponents="1" format="ascii">
               
            </DataArray>
         </Cells>
         <PointData Scalars="Rank sea_floor_depth_below_sea_surface sea_surface_height sea_floor_depth_below_geoid " Vectors="">
            <DataArray type="UInt32" Name="Rank" NumberOfComponents="1" format="ascii">
               0 0 0 0 0 0 0 0 0 0 0 0 0 0 0 0 0 0 0 0 0 0 0 0 0 0 0 0 0 0 0 0 0 0 0 0 0 0 0 0 0 0 0 0 0 0 0 0 0 0 0 0 0 0 0 0 0 0 0 0 0 0 0 0 0 0 0 0 0 0 0 0 0 0 0 0 0 0 0 0 0 0 0 0 0 0 0 0 0 0 0 0 0 0 0 0 0 0 0 0 0 0 0 0 0 0 0 0 0 0 0 0 0 0 0 0 0 0 0 0 0 0 0 0 0 0 0 0 0 0 0 0 0 0 0 0 0 0 0 0 0 0 0 0 0 0 0 0 0 0 0 0 0 0 0 0 0 0 0 0 0 0 0 0 0 0 0 0 0 0 0 0 0 0 0 0 0 0 0 0 0 0 0 0 0 0 0 0 0 0 0 0 0 0 0 0 0 0 0 0 
            </DataArray>
            <DataArray type="Float64" Name="sea_floor_depth_below_sea_surface" NumberOfComponents="1" format="ascii">
               0 0 0 0 0 0 0 0 0 0 0 0 0 0 0 0 0 0 0 0 0 0 0 0 0 0 0 0 0 0 0 0 0 0 0 0 0 0 0 0 0 0 0 0 0 0 0 0 0 0 0 0 0 0 0 0 0 0 0 0 0 0 0 0 0 0 0 0 0 0 0 0 0 0 0 0 0 0 0 0 0 0 0 0 0 0 0 0 0 0 0 0 0 0 0 0 0 0 0 0 0 0 0 0 0 0 0 0 0 0 0 0 0 0 0 0 0 0 0 0 0 0 0 0 0 0 0 0 0 0 0 0 0 0 0 0 0 0 0 0 0 0 0 0 0 0 0 0 0 0 0 0 0 0 0 0 0 0 0 0 0 0 0 0 0 0 0 0 0 0 0 0 0 0 0 0 0 0 0 0 0 0 0 0 0 0 0 0 0 0 0 0 0 0 0 0 0 0 0 0 
            </DataArray>
            <DataArray type="Float64" Name="sea_surface_height" NumberOfComponents="1" format="ascii">
               3.68901e-07 4.25825e-07 3.11916e-07 4.90292e-07 -4.8 2.47411e-07 5.39675e-07 -4.80001 -4.8 1.67626e-07 5.85206e-07 -4.79999 -4.80004 -4.8 8.47425e-08 6.05483e-07 -4.79998 -4.8 -4.80001 -1.26667e-07 1.35847e-07 8.14599e-07 6.69301e-07 -4.79998 -4.79999 -2.939e-07 2.7963e-07 1.9478e-07 1.02496e-06 4.68632e-07 5.44513e-07 -4.79998 1.87843e-07 4.87171e-07 2.20763e-07 1.7453e-07 1.00839e-07 1.02678e-06 7.24339e-07 6.42989e-07 6.93478e-07 1.35225e-07 1.79397e-07 1.5929e-07 1.45943e-07 -3.2408e-07 3.99656e-07 -7.6804e-07 3.99243e-07 4.64087e-07 -2.39602e-07 1.10216e-07 1.42077e-07 1.41891e-07 1.41929e-07 -2.83835e-07 6.00012 2.14491e-06 1.19979e-06 5.4269e-07 1.06794e-07 6.80726e-08 1.00477e-07 1.17119e-07 1.37872e-07 -2.97357e-07 5.99981 6.00017 9.16777e-07 7.81853e-07 2.48715e-07 2.9415e-09 4.26248e-08 8.20954e-08 1.14252e-07 -3.32862e-07 5.99997 5.99968 6.00012 9.24317e-07 1.78554e-07 2.20621e-08 1.46252e-08 4.34091e-08 7.88314e-08 -3.02336e-07 6.00015 5.99991 5.99981 2.73506e-06 -6.80127e-07 -1.56969e-07 -6.04955e-08 -7.70591e-09 3.49715e-08 -1.44551e-07 -3.00218e-07 6.00013 5.99997 -4.85151e-07 -2.89832e-06 -6.88789e-07 -1.88334e-07 -6.26373e-08 -1.08597e-08 -1.90405e-07 -1.0342e-07 2.02114e-07 6.00015 -3.20262e-06 -1.80276e-07 -4.12917e-07 -2.33242e-07 -1.15173e-07 -6.06207e-08 -2.27412e-07 -2.57554e-07 -6.06583e-07 -4.11386e-07 -1.89919e-06 1.84769e-06 -1.27306e-07 -2.6853e-07 -1.55311e-07 -1.06935e-07 -2.2846e-07 -2.22122e-07 -2.51372e-07 -1.88933e-07 -6.52564e-07 3.82967e-07 2.56201e-07 -4.91848e-08 -1.22148e-07 -1.30992e-07 -2.31343e-07 -2.33718e-07 -2.55212e-07 -2.7222e-07 -1.94374e-07 -3.24407e-07 3.92067e-07 1.14809e-07 -3.33416e-08 -1.09011e-07 -2.31852e-07 -2.31452e-07 -2.33658e-07 -2.28952e-07 -2.18319e-07 -2.47167e-07 1.59286e-07 1.51712e-07 6.71354e-08 -2.93647e-08 -2.33025e-07 -2.35003e-07 -2.34316e-07 -2.18844e-07 -1.58642e-07 -9.19074e-08 -1.2 9.17682e-08 6.61094e-08 -2.33495e-07 -2.3225e-07 -2.18205e-07 -1.67497e-07 -2.21076e-07 -1.2 -1.2 6.48846e-08 -2.34747e-07 -2.37173e-07 -2.17359e-07 -2.33835e-07 -1.2 -1.2 -1.2 -2.37143e-07 -2.37783e-07 -2.0953e-07 -1.2 -1.2 -1.2 -2.53159e-07 -2.65932e-07 -1.45952e-07 -1.2 -1.20001 -2.83022e-07 -3.47929e-07 -2.71254e-07 -1.2 -2.72905e-07 -2.63801e-07 -4.10149e-07 -2.25014e-07 -1.35894e-07 -2.13852e-07 
            </DataArray>
            <DataArray type="Float64" Name="sea_floor_depth_below_geoid" NumberOfComponents="1" format="ascii">
               10 10 10 10 10 10 10 10 10 10 10 10 10 10 10 10 10 10 10 10 10 10 10 10 10 10 10 10 10 10 10 10 10 10 10 10 10 10 10 10 10 10 10 10 10 10 10 10 10 10 10 10 10 10 10 10 10 10 10 10 10 10 10 10 10 10 10 10 10 10 10 10 10 10 10 10 10 10 10 10 10 10 10 10 10 10 10 10 10 10 10 10 10 10 10 10 10 10 10 10 10 10 10 10 10 10 10 10 10 10 10 10 10 10 10 10 10 10 10 10 10 10 10 10 10 10 10 10 10 10 10 10 10 10 10 10 10 10 10 10 10 10 10 10 10 10 10 10 10 10 10 10 10 10 10 10 10 10 10 10 10 10 10 10 10 10 10 10 10 10 10 10 10 10 10 10 10 10 10 10 10 10 10 10 10 10 10 10 10 10 10 10 10 10 10 10 10 10 10 10 
            </DataArray>
         </PointData> 
      </Piece>
   </UnstructuredGrid> 
</VTKFile>
