<?xml version="1.0"?>
<VTKFile type="UnstructuredGrid" version="0.1" byte_order="LittleEndian">
   <UnstructuredGrid>
      <Piece NumberOfPoints="200" NumberOfCells="0" > 
         <Points> 
            <DataArray type="Float64" Name="Position" NumberOfComponents="3" format="ascii"> 
               50  150  0  
               150  150  0  
               50  250  0  
               250  150  0  
               150  250  0  
               50  350  0  
               350  150  0  
               250  250  0  
               150  350  0  
               50  450  0  
               450  150  0  
               350  250  0  
               250  350  0  
               150  450  0  
               50  550  0  
               550  150  0  
               450  250  0  
               350  350  0  
               250  450  0  
               150  550  0  
               50  650  0  
               650  150  0  
               550  250  0  
               450  350  0  
               350  450  0  
               250  550  0  
               150  650  0  
               50  750  0  
               750  150  0  
               650  250  0  
               550  350  0  
               450  450  0  
               350  550  0  
               250  650  0  
               150  750  0  
               50  850  0  
               850  150  0  
               750  250  0  
               650  350  0  
               550  450  0  
               450  550  0  
               350  650  0  
               250  750  0  
               150  850  0  
               50  950  0  
               950  150  0  
               850  250  0  
               750  350  0  
               650  450  0  
               550  550  0  
               450  650  0  
               350  750  0  
               250  850  0  
               150  950  0  
               50  1050  0  
               1050  150  0  
               950  250  0  
               850  350  0  
               750  450  0  
               650  550  0  
               550  650  0  
               450  750  0  
               350  850  0  
               250  950  0  
               150  1050  0  
               1150  150  0  
               1050  250  0  
               950  350  0  
               850  450  0  
               750  550  0  
               650  650  0  
               550  750  0  
               450  850  0  
               350  950  0  
               250  1050  0  
               1250  150  0  
               1150  250  0  
               1050  350  0  
               950  450  0  
               850  550  0  
               750  650  0  
               650  750  0  
               550  850  0  
               450  950  0  
               350  1050  0  
               1350  150  0  
               1250  250  0  
               1150  350  0  
               1050  450  0  
               950  550  0  
               850  650  0  
               750  750  0  
               650  850  0  
               550  950  0  
               450  1050  0  
               1450  150  0  
               1350  250  0  
               1250  350  0  
               1150  450  0  
               1050  550  0  
               950  650  0  
               850  750  0  
               750  850  0  
               650  950  0  
               550  1050  0  
               1550  150  0  
               1450  250  0  
               1350  350  0  
               1250  450  0  
               1150  550  0  
               1050  650  0  
               950  750  0  
               850  850  0  
               750  950  0  
               650  1050  0  
               1650  150  0  
               1550  250  0  
               1450  350  0  
               1350  450  0  
               1250  550  0  
               1150  650  0  
               1050  750  0  
               950  850  0  
               850  950  0  
               750  1050  0  
               1750  150  0  
               1650  250  0  
               1550  350  0  
               1450  450  0  
               1350  550  0  
               1250  650  0  
               1150  750  0  
               1050  850  0  
               950  950  0  
               850  1050  0  
               1850  150  0  
               1750  250  0  
               1650  350  0  
               1550  450  0  
               1450  550  0  
               1350  650  0  
               1250  750  0  
               1150  850  0  
               1050  950  0  
               950  1050  0  
               1950  150  0  
               1850  250  0  
               1750  350  0  
               1650  450  0  
               1550  550  0  
               1450  650  0  
               1350  750  0  
               1250  850  0  
               1150  950  0  
               1050  1050  0  
               1950  250  0  
               1850  350  0  
               1750  450  0  
               1650  550  0  
               1550  650  0  
               1450  750  0  
               1350  850  0  
               1250  950  0  
               1150  1050  0  
               1950  350  0  
               1850  450  0  
               1750  550  0  
               1650  650  0  
               1550  750  0  
               1450  850  0  
               1350  950  0  
               1250  1050  0  
               1950  450  0  
               1850  550  0  
               1750  650  0  
               1650  750  0  
               1550  850  0  
               1450  950  0  
               1350  1050  0  
               1950  550  0  
               1850  650  0  
               1750  750  0  
               1650  850  0  
               1550  950  0  
               1450  1050  0  
               1950  650  0  
               1850  750  0  
               1750  850  0  
               1650  950  0  
               1550  1050  0  
               1950  750  0  
               1850  850  0  
               1750  950  0  
               1650  1050  0  
               1950  850  0  
               1850  950  0  
               1750  1050  0  
               1950  950  0  
               1850  1050  0  
               1950  1050  0  
            </DataArray>
         </Points> 

         <Cells>
            <DataArray type="Int32" Name="connectivity" NumberOfComponents="1" format="ascii">
               
            </DataArray> 
            <DataArray type="Int32" Name="offsets" NumberOfComponents="1" format="ascii">
               
            </DataArray>
            <DataArray type="UInt8"  Name="types" NumberOfComponents="1" format="ascii">
               
            </DataArray>
         </Cells>
         <PointData Scalars="Rank sea_floor_depth_below_sea_surface sea_surface_height sea_floor_depth_below_geoid " Vectors="">
            <DataArray type="UInt32" Name="Rank" NumberOfComponents="1" format="ascii">
               0 0 0 0 0 0 0 0 0 0 0 0 0 0 0 0 0 0 0 0 0 0 0 0 0 0 0 0 0 0 0 0 0 0 0 0 0 0 0 0 0 0 0 0 0 0 0 0 0 0 0 0 0 0 0 0 0 0 0 0 0 0 0 0 0 0 0 0 0 0 0 0 0 0 0 0 0 0 0 0 0 0 0 0 0 0 0 0 0 0 0 0 0 0 0 0 0 0 0 0 0 0 0 0 0 0 0 0 0 0 0 0 0 0 0 0 0 0 0 0 0 0 0 0 0 0 0 0 0 0 0 0 0 0 0 0 0 0 0 0 0 0 0 0 0 0 0 0 0 0 0 0 0 0 0 0 0 0 0 0 0 0 0 0 0 0 0 0 0 0 0 0 0 0 0 0 0 0 0 0 0 0 0 0 0 0 0 0 0 0 0 0 0 0 0 0 0 0 0 0 
            </DataArray>
            <DataArray type="Float64" Name="sea_floor_depth_below_sea_surface" NumberOfComponents="1" format="ascii">
               0 0 0 0 0 0 0 0 0 0 0 0 0 0 0 0 0 0 0 0 0 0 0 0 0 0 0 0 0 0 0 0 0 0 0 0 0 0 0 0 0 0 0 0 0 0 0 0 0 0 0 0 0 0 0 0 0 0 0 0 0 0 0 0 0 0 0 0 0 0 0 0 0 0 0 0 0 0 0 0 0 0 0 0 0 0 0 0 0 0 0 0 0 0 0 0 0 0 0 0 0 0 0 0 0 0 0 0 0 0 0 0 0 0 0 0 0 0 0 0 0 0 0 0 0 0 0 0 0 0 0 0 0 0 0 0 0 0 0 0 0 0 0 0 0 0 0 0 0 0 0 0 0 0 0 0 0 0 0 0 0 0 0 0 0 0 0 0 0 0 0 0 0 0 0 0 0 0 0 0 0 0 0 0 0 0 0 0 0 0 0 0 0 0 0 0 0 0 0 0 
            </DataArray>
            <DataArray type="Float64" Name="sea_surface_height" NumberOfComponents="1" format="ascii">
               -2.40171e-08 -1.64169e-08 -3.16543e-08 -7.66584e-09 -2.4 -4.05104e-08 -1.30875e-09 -2.4 -2.4 -6.26927e-08 7.29381e-09 -2.4 -2.40002 -2.4 -8.13815e-08 2.39549e-08 -2.39999 -2.4 -2.4 -2.00916e-07 -2.21517e-08 2.75469e-08 3.2864e-08 -2.39999 -2.4 -3.0205e-07 7.35841e-08 2.55771e-08 7.45318e-09 5.68201e-08 7.20697e-08 -2.39999 1.13912e-08 2.07461e-07 4.42278e-08 2.19416e-08 3.70771e-08 1.01313e-08 2.39061e-08 9.06161e-08 3.16928e-07 -2.42582e-08 2.43408e-08 1.63515e-08 1.25604e-08 3.47896e-08 2.48095e-08 9.03065e-08 8.20466e-08 1.14117e-07 -2.75505e-07 -2.06166e-08 9.54138e-09 1.04714e-08 1.05686e-08 1.10343e-08 2.99991 -3.08424e-08 1.67132e-08 2.47277e-08 -7.20477e-08 -5.12702e-08 -1.17489e-08 2.00228e-09 8.69527e-09 -7.87868e-09 2.99988 2.99987 3.32225e-08 2.01101e-08 7.525e-09 -7.42548e-08 -3.5579e-08 -1.03937e-08 1.18808e-09 -3.47598e-08 2.99999 2.99977 2.99991 7.94182e-08 4.38894e-09 -2.95525e-08 -3.32523e-08 -2.06163e-08 -9.54552e-09 -2.55966e-08 3.00024 3.00001 2.99988 3.01479e-07 2.06777e-08 -1.0319e-08 -3.05559e-08 -2.57352e-08 -1.91889e-08 1.77535e-08 8.09547e-09 3.00031 2.99999 3.99899e-07 -1.37669e-07 -2.98213e-08 -2.262e-08 -2.35046e-08 -2.30263e-08 2.3071e-09 -1.30385e-08 -1.01875e-08 3.00024 -1.35683e-07 -3.44901e-07 -7.87266e-08 -2.54777e-08 -2.1021e-08 -2.2529e-08 -8.49031e-09 -3.02228e-08 -6.2604e-08 -4.6999e-08 -4.79893e-07 9.48655e-08 -2.47447e-09 -1.78966e-08 -1.54043e-08 -1.89456e-08 -5.78714e-09 -2.49595e-09 1.78599e-08 -3.23603e-08 -1.41649e-07 3.03819e-07 2.58949e-08 -8.4252e-09 -8.37725e-09 -1.36625e-08 -5.56407e-09 -5.83674e-09 -8.21417e-09 -3.01561e-08 1.25352e-08 4.82811e-08 1.45475e-07 2.68982e-08 9.30142e-09 -4.67383e-09 -5.21991e-09 -4.92808e-09 -3.01624e-09 7.94417e-10 7.03478e-09 4.35725e-09 1.63009e-07 7.88281e-08 2.84577e-08 1.04251e-08 -4.91021e-09 -4.58364e-09 -2.47029e-09 6.51199e-09 4.19105e-08 8.16968e-08 -0.6 3.19805e-08 3.90431e-08 -4.66237e-09 -3.57009e-09 6.45954e-09 4.31358e-08 9.0753e-09 -0.599999 -0.599999 1.15174e-08 -4.96947e-09 -5.31136e-09 6.86586e-09 -4.97939e-09 -0.599999 -0.599999 -0.599997 -6.96898e-09 -6.17562e-09 1.76432e-08 -0.6 -0.600001 -0.6 -1.712e-08 -2.81571e-08 7.78112e-08 -0.600001 -0.600005 -3.75653e-08 -9.20938e-08 -2.25598e-08 -0.600001 -3.16581e-08 -2.08885e-08 -1.45451e-07 3.24186e-09 8.34476e-08 2.1718e-08 
            </DataArray>
            <DataArray type="Float64" Name="sea_floor_depth_below_geoid" NumberOfComponents="1" format="ascii">
               10 10 10 10 10 10 10 10 10 10 10 10 10 10 10 10 10 10 10 10 10 10 10 10 10 10 10 10 10 10 10 10 10 10 10 10 10 10 10 10 10 10 10 10 10 10 10 10 10 10 10 10 10 10 10 10 10 10 10 10 10 10 10 10 10 10 10 10 10 10 10 10 10 10 10 10 10 10 10 10 10 10 10 10 10 10 10 10 10 10 10 10 10 10 10 10 10 10 10 10 10 10 10 10 10 10 10 10 10 10 10 10 10 10 10 10 10 10 10 10 10 10 10 10 10 10 10 10 10 10 10 10 10 10 10 10 10 10 10 10 10 10 10 10 10 10 10 10 10 10 10 10 10 10 10 10 10 10 10 10 10 10 10 10 10 10 10 10 10 10 10 10 10 10 10 10 10 10 10 10 10 10 10 10 10 10 10 10 10 10 10 10 10 10 10 10 10 10 10 10 
            </DataArray>
         </PointData> 
      </Piece>
   </UnstructuredGrid> 
</VTKFile>
